{"title":"The Voyage of the Dawn Treader TS x264-Jucified ","uid":6035229,"size":419816691,"categoryP":"video","categoryS":"movies","magnet":"?xt=urn:btih:a463456f7206484fc3c41762e5a26b2123f2b851&amp;dn=The+Voyage+of+the+Dawn+Treader+TS+x264-Jucified+&amp;tr=udp%3A%2F%2Ftracker.openbittorrent.com%3A80&amp;tr=udp%3A%2F%2Fopen.demonii.com%3A1337&amp;tr=udp%3A%2F%2Ftracker.coppersurfer.tk%3A6969&amp;tr=udp%3A%2F%2Fexodus.desync.com%3A6969","seeders":0,"leechers":1,"uploader":".BONE.","files":2,"time":1292208637,"description":"\nIMDB Link/Rating\n &lt;a href=&quot;\nhttp://www.imdb.com/title/tt0980970/&quot; rel=&quot;nofollow&quot; target=&quot;_NEW&quot;&gt;\nhttp://www.imdb.com/title/tt0980970/&lt;/a&gt;\n\n6.7/10\n\nSource Used\n\nThe Chronicles of Narnia - The Voyage of the Dawn Treader TS XViD - IMAGiNE (Thanks)\n\nGeneral\n\nComplete name : The Chronicles of Narnia - The Voyage of the Dawn Treader TS x264-Jucified (400MB).mp4\nFormat : MPEG-4\nFormat profile : Base Media\nCodec ID : isom\nFile size : 400 MiB\nDuration : 1h 45mn\nOverall bit rate : 532 Kbps\n\nVideo\n\nFormat : AVC\nFormat/Info : Advanced Video Codec\nFormat profile : &lt;a class=&quot;__cf_email__&quot; href=&quot;/cdn-cgi/l/email-protection&quot; data-cfemail=&quot;b7ffded0dff7fb839986&quot;&gt;[email&amp;#160;protected]&lt;/a&gt;&lt;script cf-hash='f9e31' type=&quot;text/javascript&quot;&gt;\n/* &lt;![CDATA[ */!function(){try{var t=&quot;currentScript&quot;in document?document.currentScript:function(){for(var t=document.getElementsByTagName(&quot;script&quot;),e=t.length;e--;)if(t[e].getAttribute(&quot;cf-hash&quot;))return t[e]}();if(t&amp;&amp;t.previousSibling){var e,r,n,i,c=t.previousSibling,a=c.getAttribute(&quot;data-cfemail&quot;);if(a){for(e=&quot;&quot;,r=parseInt(a.substr(0,2),16),n=2;a.length-n;n+=2)i=parseInt(a.substr(n,2),16)^r,e+=String.fromCharCode(i);e=document.createTextNode(e),c.parentNode.replaceChild(e,c)}}}catch(u){}}();/* ]]&gt; */&lt;/script&gt;\nFormat settings, CABAC : Yes\nFormat settings, ReFrames : 2 frames\nCodec ID : avc1\nCodec ID/Info : Advanced Video Coding\nDuration : 1h 45mn\nBit rate mode : Variable\nBit rate : 497 Kbps\nMaximum bit rate : 1 513 Kbps\nWidth : 700 pixels\nHeight : 328 pixels\nDisplay aspect ratio : 2.2\nFrame rate mode : Constant\nFrame rate : 25.000 fps\nResolution : 24 bits\nColorimetry : 4:2:0\nScan type : Progressive\nBits/(Pixel*Frame) : 0.087\nStream size : 374 MiB (93%)\n\nAudio\n\nFormat : AAC\nFormat/Info : Advanced Audio Codec\nFormat version : Version 4\nFormat profile : LC\nFormat settings, SBR : Yes\nFormat settings, PS : No\nCodec ID : 40\nDuration : 1h 45mn\nBit rate mode : Variable\nBit rate : 32.0 Kbps\nMaximum bit rate : 35.8 Kbps\nChannel(s) : 2 channels\nChannel positions : L R\nSampling rate : 44.1 KHz\nResolution : 16 bits\nStream size : 24.1 MiB (6%)\n\n &lt;a href=&quot;\nhttp://shareimage.ro/images/p0e9r3jynfun953x10pg.png&quot; rel=&quot;nofollow&quot; target=&quot;_NEW&quot;&gt;\nhttp://shareimage.ro/images/p0e9r3jynfun953x10pg.png&lt;/a&gt;\n &lt;a href=&quot;\nhttp://shareimage.ro/images/u5jmmpv499urrj7n1fw.png&quot; rel=&quot;nofollow&quot; target=&quot;_NEW&quot;&gt;\nhttp://shareimage.ro/images/u5jmmpv499urrj7n1fw.png&lt;/a&gt;\n &lt;a href=&quot;\nhttp://shareimage.ro/images/zjphzh45l3206388gto.png&quot; rel=&quot;nofollow&quot; target=&quot;_NEW&quot;&gt;\nhttp://shareimage.ro/images/zjphzh45l3206388gto.png&lt;/a&gt;\n &lt;a href=&quot;\nhttp://shareimage.ro/images/un24tmr31cko53jfadn.png&quot; rel=&quot;nofollow&quot; target=&quot;_NEW&quot;&gt;\nhttp://shareimage.ro/images/un24tmr31cko53jfadn.png&lt;/a&gt;\n &lt;a href=&quot;\nhttp://img10.imageshack.us/img10/1433/vlcsnap00004x.png&quot; rel=&quot;nofollow&quot; target=&quot;_NEW&quot;&gt;\nhttp://img10.imageshack.us/img10/1433/vlcsnap00004x.png&lt;/a&gt;\n &lt;a href=&quot;\nhttp://img576.imageshack.us/img576/7074/vlcsnap00002l.png&quot; rel=&quot;nofollow&quot; target=&quot;_NEW&quot;&gt;\nhttp://img576.imageshack.us/img576/7074/vlcsnap00002l.png&lt;/a&gt;\n &lt;a href=&quot;\nhttp://img221.imageshack.us/img221/9522/vlcsnap00001q.png&quot; rel=&quot;nofollow&quot; target=&quot;_NEW&quot;&gt;\nhttp://img221.imageshack.us/img221/9522/vlcsnap00001q.png&lt;/a&gt;","torrent":{"xt":"urn:btih:a463456f7206484fc3c41762e5a26b2123f2b851","amp;dn":"The+Voyage+of+the+Dawn+Treader+TS+x264-Jucified+","amp;tr":["udp%3A%2F%2Ftracker.openbittorrent.com%3A80","udp%3A%2F%2Fopen.demonii.com%3A1337","udp%3A%2F%2Ftracker.coppersurfer.tk%3A6969","udp%3A%2F%2Fexodus.desync.com%3A6969"],"infoHash":"a463456f7206484fc3c41762e5a26b2123f2b851","infoHashBuffer":{"type":"Buffer","data":[164,99,69,111,114,6,72,79,195,196,23,98,229,162,107,33,35,242,184,81]},"announce":[],"urlList":[]}}